ModelForces
version=1
nRows=15
nColumns=15
inDegrees=no

This file contains the forces exerted on a model during a simulation.

A force is a generalized force, meaning that it can be either a force (N) or a torque (Nm).

Units are S.I. units (second, meters, Newtons, ...)
Angles are in degrees.

endheader
time	Liu	Thelen	contactForce.block.force.X	contactForce.block.force.Y	contactForce.block.force.Z	contactForce.block.torque.X	contactForce.block.torque.Y	contactForce.block.torque.Z	contactForce.ground.force.X	contactForce.ground.force.Y	contactForce.ground.force.Z	contactForce.ground.torque.X	contactForce.ground.torque.Y	contactForce.ground.torque.Z
      2.50026061	    565.84929153	    565.52933358	     -2.41048219	     35.93592078	      0.06920037	     -0.00345753	      0.00000000	     -0.12043750	      2.41048219	    -35.93592078	     -0.06920037	      0.10572265	      0.00693889	      0.07929117
      2.50065150	    565.89158964	    565.63491469	     -2.89735389	     42.50732844	      0.08272628	     -0.00413280	      0.00000000	     -0.14474456	      2.89735389	    -42.50732844	     -0.08272628	      0.12505859	      0.00834142	      0.09389593
      2.50097717	    565.92635843	    565.72215344	     -3.36972832	     48.88003247	      0.09627578	     -0.00480908	      0.00000000	     -0.16832174	      3.36972832	    -48.88003247	     -0.09627578	      0.14381022	      0.00970123	      0.10807207
      2.50130285	    565.96090425	    565.80826075	     -3.90011403	     56.03275918	      0.11204958	     -0.00559620	      0.00000000	     -0.19478722	      3.90011403	    -56.03275918	     -0.11204958	      0.16485751	      0.01122681	      0.12399879
      2.50169559	    566.00255214	    565.91096457	     -4.61215519	     65.64152747	      0.13427962	     -0.00670517	      0.00000000	     -0.23030509	      4.61215519	    -65.64152747	     -0.13427962	      0.19313260	      0.01327255	      0.14541930
      2.50208833	    566.04452745	    566.01195072	     -5.39666408	     76.25475970	      0.16036022	     -0.00800579	     -0.00000000	     -0.26942180	      5.39666408	    -76.25475970	     -0.16036022	      0.22436447	      0.01552298	      0.16911110
      2.50240265	    566.07860509	    566.09189618	     -6.07114575	     85.41742630	      0.18427283	     -0.00919791	      0.00000000	     -0.30303886	      6.07114575	    -85.41742630	     -0.18427283	      0.25132859	      0.01745447	      0.18959094
      2.50271697	    566.11332071	    566.17059786	     -6.78185816	     95.12555286	      0.21111653	     -0.01053575	     -0.00000000	     -0.33844798	      6.78185816	    -95.12555286	     -0.21111653	      0.27989880	      0.01948605	      0.21131566
      2.50312441	    566.15958859	    566.27113478	     -7.74824813	    108.44267618	      0.25059459	     -0.01250256	      0.00000000	     -0.38657245	      7.74824813	   -108.44267618	     -0.25059459	      0.31909154	      0.02224186	      0.24115882
      2.50353185	    566.20767977	    566.36954631	     -8.75348455	    122.48419512	      0.29568327	     -0.01474796	     -0.00000000	     -0.43660244	      8.75348455	   -122.48419512	     -0.29568327	      0.36041826	      0.02509948	      0.27267784
      2.50383648	    566.24508151	    566.44206724	     -9.52170729	    133.38586673	      0.33318672	     -0.01661491	     -0.00000000	     -0.47481576	      9.52170729	   -133.38586673	     -0.33318672	      0.39250539	      0.02727653	      0.29718619
      2.50414111	    566.28391734	    566.51323461	    -10.29661023	    144.57631877	      0.37395034	     -0.01864347	     -0.00000000	     -0.51334242	     10.29661023	   -144.57631877	     -0.37395034	      0.42544402	      0.02946594	      0.32237823
      2.50456658	    566.34089122	    566.61072591	    -11.37572007	    160.59028930	      0.43615476	     -0.02173772	      0.00000000	     -0.56695987	     11.37572007	   -160.59028930	     -0.43615476	      0.47258336	      0.03250270	      0.35849147
      2.50499205	    566.40147117	    566.70553316	    -12.43035155	    176.92004852	      0.50393506	     -0.02510763	      0.00000000	     -0.61931925	     12.43035155	   -176.92004852	     -0.50393506	      0.52065618	      0.03545492	      0.39539595
      2.50529103	    566.44644118	    566.77088084	    -13.14331093	    188.50391272	      0.55433410	     -0.02761225	      0.00000000	     -0.65468894	     13.14331093	   -188.50391272	     -0.55433410	      0.55476034	      0.03744042	      0.42162616
